<?xml version="1.0" standalone="no"?><!DOCTYPE svg PUBLIC "-//W3C//DTD SVG 1.1//EN" "http://www.w3.org/Graphics/SVG/1.1/DTD/svg11.dtd"><svg class="icon" width="200px" height="200.00px" viewBox="0 0 1024 1024" version="1.1" xmlns="http://www.w3.org/2000/svg"><path fill="#1296db" d="M299.107464 149.319086L1023.859644 0l-0.682601 213.31298v533.239786h-0.511952c0 61.946089-68.814767 123.764191-164.464307 143.388985-104.736673 21.459286-201.666091-15.742498-216.512674-83.106737-14.846583-67.406902 58.02113-139.464026 162.757803-160.923311 48.720685-9.983047 95.564215-7.167316 133.4486 5.332824v-420.22657L383.579404 346.292291V874.583217h-0.554614c0.085325 61.903427-68.772105 123.678866-164.421644 143.30366-104.736673 21.501948-201.666091-15.699835-216.512675-83.106737-14.846583-67.364239 58.02113-139.421364 162.757804-160.88065 48.720685-10.02571 95.564215-7.167316 133.4486 5.332825V149.319086h0.810589z" /></svg>