<?xml version="1.0" standalone="no"?><!DOCTYPE svg PUBLIC "-//W3C//DTD SVG 1.1//EN" "http://www.w3.org/Graphics/SVG/1.1/DTD/svg11.dtd"><svg t="1625064946465" class="icon" viewBox="0 0 1024 1024" version="1.1" xmlns="http://www.w3.org/2000/svg" p-id="3221" xmlns:xlink="http://www.w3.org/1999/xlink" width="32" height="32"><defs><style type="text/css"></style></defs><path d="M517.12 944.64c-236.11392 0-427.52-191.40608-427.52-427.52 0-236.11392 191.40608-427.52 427.52-427.52 236.11392 0 427.52 191.40608 427.52 427.52C944.64 753.23392 753.23392 944.64 517.12 944.64zM517.12 143.04256c-206.59712 0-374.08256 167.48544-374.08256 374.08256S310.52288 891.20256 517.12 891.20256c206.60224 0 374.08256-167.48544 374.08256-374.08256S723.72224 143.04256 517.12 143.04256zM555.06432 517.26848l113.2032 113.2032c10.42432 10.42944 10.42432 27.3664 0 37.79584-10.43456 10.42944-27.35104 10.42944-37.79584 0l-113.2032-113.20832-113.99168 113.9712c-10.51648 10.5216-27.5712 10.5216-38.07744 0-10.51648-10.5216-10.51648-27.5712 0-38.07744l113.98144-113.98144L365.97248 403.75296c-10.43456-10.42944-10.43456-27.35104 0-37.78048 10.43456-10.43968 27.34592-10.43968 37.79072 0l113.21344 113.20832 114.82112-114.82112c10.51648-10.5216 27.5712-10.5216 38.08256 0 10.51648 10.51136 10.51648 27.5712 0 38.08256L555.06432 517.26848z" p-id="3222" fill="#515151"></path></svg>