<?xml version="1.0" standalone="no"?><!DOCTYPE svg PUBLIC "-//W3C//DTD SVG 1.1//EN" "http://www.w3.org/Graphics/SVG/1.1/DTD/svg11.dtd"><svg t="1624368461882" class="icon" viewBox="0 0 1024 1024" version="1.1" xmlns="http://www.w3.org/2000/svg" p-id="2686" xmlns:xlink="http://www.w3.org/1999/xlink" width="32" height="32"><defs><style type="text/css"></style></defs><path d="M999.073 878.496L754.049 633.328c-2.856-2.856-6.056-5.032-9.032-7.312a402.928 402.928 0 0 0 65.488-220.72C810.617 181.512 629.249 0 405.361 0 181.481 0 0.001 181.504 0.001 405.304c0 223.912 181.48 405.304 405.248 405.304 81.488 0 157.144-24.24 220.8-65.608 2.288 3.08 4.456 6.168 7.2 8.912l245.024 245.056a85.064 85.064 0 0 0 60.344 25.032c21.824 0 43.656-8.344 60.344-24.92 33.368-33.256 33.368-87.32 0.112-120.584M405.369 682.704C252.457 682.704 128.001 558.24 128.001 405.304c0-152.816 124.456-277.288 277.36-277.288 152.92 0 277.256 124.472 277.256 277.4 0 152.816-124.456 277.288-277.248 277.288" p-id="2687" fill="#13227a"></path></svg>