<?xml version="1.0" standalone="no"?><!DOCTYPE svg PUBLIC "-//W3C//DTD SVG 1.1//EN" "http://www.w3.org/Graphics/SVG/1.1/DTD/svg11.dtd"><svg t="1559187851335" class="icon" style="" viewBox="0 0 1024 1024" version="1.1" xmlns="http://www.w3.org/2000/svg" p-id="2254" xmlns:xlink="http://www.w3.org/1999/xlink" width="200" height="200"><defs><style type="text/css"></style></defs><path d="M902.604162 233.211483 734.909859 233.211483l0-55.456033c0-30.458709-25.15389-55.428404-55.898101-55.428404L343.617012 122.327046c-30.744211 0-55.892985 24.969695-55.892985 55.428404l0 55.456033-167.69942 0c-30.738072 0-55.892985 24.935925-55.892985 55.423287l0 554.363853c0 30.492478 25.15389 55.434543 55.892985 55.434543l782.578532 0c30.744211 0 55.898101-24.942065 55.898101-55.434543L958.50124 288.63477C958.502263 258.147408 933.348374 233.211483 902.604162 233.211483L902.604162 233.211483zM343.617012 177.883363c0.033769-0.033769 0.061398-0.083911 0.11154-0.128937l335.193155 0c0.033769 0.045025 0.089028 0.072655 0.11768 0.128937l0 55.32812L343.650781 233.211483l0-55.32812L343.617012 177.883363zM902.604162 454.958866l-111.796202 0 0 138.599661c0 15.220656-12.577456 27.709085-27.949562 27.709085l-55.898101 0c-15.377222 0-27.949562-12.487406-27.949562-27.709085L679.010735 454.958866 343.617012 454.958866l0 138.599661c0 15.220656-12.571317 27.709085-27.949562 27.709085L259.770372 621.267613c-15.365966 0-27.943422-12.487406-27.943422-27.709085L231.826949 454.958866 120.024607 454.958866l0-55.4458 782.578532 0L902.603139 454.958866 902.604162 454.958866zM902.604162 454.958866" p-id="2255"></path></svg>