<?xml version="1.0" standalone="no"?><!DOCTYPE svg PUBLIC "-//W3C//DTD SVG 1.1//EN" "http://www.w3.org/Graphics/SVG/1.1/DTD/svg11.dtd"><svg t="1559195105569" class="icon" style="" viewBox="0 0 1024 1024" version="1.1" xmlns="http://www.w3.org/2000/svg" p-id="2728" xmlns:xlink="http://www.w3.org/1999/xlink" width="200" height="200"><defs><style type="text/css"></style></defs><path d="M698.78 179.84a225.94 225.94 0 0 0-177 85.21 226 226 0 0 0-177-85.21c-125 0-226.38 101.35-226.38 226.38 0 208.56 403.34 455.61 403.34 455.61s403.34-241 403.34-455.61c0.07-125.03-101.28-226.38-226.3-226.38z" fill="#303030" p-id="2729"></path><path d="M842.76 224.95a231.36 231.36 0 0 0-340.57 14.56 231.37 231.37 0 0 0-408.34 149c0 48.64 21.52 103.18 64 162.1 33.68 46.75 80.59 96.44 139.42 147.69 100 87.1 201.33 149.47 202.34 150.09l2.58 1.58 2.6-1.55c1-0.6 102.37-61.47 202.37-147.83C766 649.8 812.89 600.2 846.57 553.19c42.44-59.23 64-114.62 64-164.64a229.86 229.86 0 0 0-67.81-163.6z m-4.28 322.37C805.27 593.67 758.92 642.67 700.7 693c-90.46 78.13-182 135.27-198.48 145.33C485.83 828 394.3 769.62 303.8 690.79c-58.26-50.74-104.65-99.86-137.88-146-41.19-57.18-62.08-109.75-62.08-156.25 0-122.07 99.31-221.38 221.38-221.38a220.42 220.42 0 0 1 173.06 83.33l3.91 4.89 3.91-4.89a220.42 220.42 0 0 1 173.06-83.33c122.07 0 221.38 99.31 221.38 221.38-0.01 47.88-20.89 101.3-62.06 158.77z" fill="#EDA545" p-id="2730"></path></svg>