<?xml version="1.0" standalone="no"?><!DOCTYPE svg PUBLIC "-//W3C//DTD SVG 1.1//EN" "http://www.w3.org/Graphics/SVG/1.1/DTD/svg11.dtd"><svg t="1559185932824" class="icon" style="" viewBox="0 0 1024 1024" version="1.1" xmlns="http://www.w3.org/2000/svg" p-id="1987" xmlns:xlink="http://www.w3.org/1999/xlink" width="200" height="200"><defs><style type="text/css"></style></defs><path d="M987.428571 369.714286q0 12.571429-14.857143 27.428571l-207.428571 202.285714 49.142857 285.714286q0.571429 4 0.571429 11.428571 0 12-6 20.285714t-17.428571 8.285714q-10.857143 0-22.857143-6.857143l-256.571429-134.857143-256.571429 134.857143q-12.571429 6.857143-22.857143 6.857143-12 0-18-8.285714t-6-20.285714q0-3.428571 1.142857-11.428571l49.142857-285.714286-208-202.285714q-14.285714-15.428571-14.285714-27.428571 0-21.142857 32-26.285714l286.857143-41.714286 128.571429-260q10.857143-23.428571 28-23.428571t28 23.428571l128.571429 260 286.857143 41.714286q32 5.142857 32 26.285714z" p-id="1988" fill="#515151"></path></svg>