<?xml version="1.0" encoding="utf-8"?>
<!-- Generator: Adobe Illustrator 16.0.0, SVG Export Plug-In . SVG Version: 6.00 Build 0)  -->
<!DOCTYPE svg PUBLIC "-//W3C//DTD SVG 1.1//EN" "http://www.w3.org/Graphics/SVG/1.1/DTD/svg11.dtd">
<svg version="1.1" id="Layer_1" xmlns="http://www.w3.org/2000/svg" xmlns:xlink="http://www.w3.org/1999/xlink" x="0px" y="0px"
	 width="100px" height="100px" viewBox="0 0 100 100" enable-background="new 0 0 100 100" xml:space="preserve">
<path d="M93.037,18.868L81.893,7.723c-0.337-0.325-0.93-0.713-1.839-0.713c-0.881,0-1.464,0.368-1.869,0.745l-2.88,2.882V4.188
	c0-1.381-1.119-2.5-2.5-2.5H8.688c-1.381,0-2.5,1.119-2.5,2.5v91.624c0,1.381,1.119,2.5,2.5,2.5h64.116c1.381,0,2.5-1.119,2.5-2.5
	V40.341L93.052,22.59c0.49-0.498,0.76-1.156,0.76-1.853C93.812,20.048,93.547,19.395,93.037,18.868z M78.555,30.97L60.431,49.095
	c-0.242,0.242-0.56,0.395-0.9,0.431l-7.287,0.782c-0.054,0.006-0.107,0.009-0.16,0.009c-0.396,0-0.778-0.157-1.062-0.44
	c-0.32-0.321-0.479-0.771-0.43-1.222l0.79-7.277c0.037-0.34,0.188-0.657,0.431-0.898l18.126-18.125
	c0.281-0.281,0.663-0.439,1.061-0.439s0.779,0.158,1.061,0.439l6.495,6.496C79.141,29.435,79.141,30.385,78.555,30.97z"/>
</svg>
