<?xml version="1.0" encoding="utf-8"?>
<!-- Generator: Adobe Illustrator 16.0.4, SVG Export Plug-In . SVG Version: 6.00 Build 0)  -->
<!DOCTYPE svg PUBLIC "-//W3C//DTD SVG 1.1//EN" "http://www.w3.org/Graphics/SVG/1.1/DTD/svg11.dtd">
<svg version="1.1" id="Capa_1" xmlns="http://www.w3.org/2000/svg" xmlns:xlink="http://www.w3.org/1999/xlink" x="0px" y="0px"
	 width="612px" height="792px" viewBox="0 0 612 792" enable-background="new 0 0 612 792" xml:space="preserve">
<path d="M366.064,384.047H150.908v-35.859h215.156V384.047z M401.924,407.953H150.908v35.859h251.016V407.953z M150.908,563.342
	h179.297v-35.857H150.908V563.342z M150.908,503.578h286.875v-35.859H150.908V503.578z M545.361,192.796v334.688v11.953l-0.6,95.625
	c0,6.771-2.391,12.449-7.172,17.031s-10.357,6.873-16.732,6.873H90.545c-6.773,0-12.451-2.291-17.033-6.873
	c-4.582-4.582-6.873-10.26-6.873-17.031l0.598-107.578V192.796c0-6.773,2.291-12.451,6.873-17.033s10.26-6.873,17.033-6.873h59.766
	v-24.504c0-3.187,1.096-5.877,3.287-8.068c2.191-2.191,4.88-3.287,8.068-3.287h25.101c3.187,0,5.877,1.096,8.068,3.287
	s3.287,4.88,3.287,8.068v24.504h43.031v-22.113c0-3.585,1.395-6.773,4.184-9.562s5.976-4.184,9.562-4.184h20.32
	c3.585,0,6.773,1.395,9.562,4.184s4.184,5.976,4.184,9.562v22.113h35.859v-22.113c0-3.585,1.395-6.773,4.186-9.562
	c2.789-2.789,5.976-4.184,9.562-4.184h20.32c3.585,0,6.772,1.395,9.562,4.184s4.186,5.976,4.186,9.562v22.113h40.641v-24.504
	c0-3.187,1.096-5.877,3.287-8.068s4.88-3.287,8.068-3.287h25.102c3.187,0,5.877,1.096,8.068,3.287
	c2.189,2.191,3.287,4.88,3.287,8.068v24.504h59.766c6.772,0,12.451,2.291,17.033,6.873S545.361,186.023,545.361,192.796z
	 M497.547,228.058c0-3.187-1.096-5.877-3.287-8.068c-2.189-2.191-4.879-3.287-8.066-3.287h-24.505v24.504
	c0,3.187-1.097,5.877-3.286,8.068c-2.191,2.191-4.88,3.287-8.068,3.287h-25.102c-3.188,0-5.878-1.096-8.068-3.287
	c-2.191-2.191-3.287-4.88-3.287-8.068v-24.504h-40.641v22.113c0,3.585-1.396,6.773-4.186,9.562
	c-2.789,2.789-5.976,4.184-9.562,4.184h-20.32c-3.585,0-6.774-1.395-9.562-4.184c-2.789-2.789-4.186-5.976-4.186-9.562v-22.113
	h-35.859v22.113c0,3.585-1.395,6.773-4.184,9.562s-5.976,4.184-9.562,4.184h-20.32c-3.585,0-6.773-1.395-9.562-4.184
	s-4.184-5.976-4.184-9.562v-22.113H198.72v24.504c0,3.187-1.096,5.877-3.287,8.068s-4.88,3.287-8.068,3.287h-25.102
	c-3.187,0-5.877-1.096-8.068-3.287c-2.191-2.191-3.287-4.88-3.287-8.068v-24.504h-24.504c-3.187,0-5.876,1.096-8.067,3.287
	c-2.191,2.191-3.287,4.88-3.287,8.068v299.426v11.953l-0.598,60.361c0,3.188,1.096,5.877,3.287,8.068
	c2.191,2.189,4.88,3.287,8.068,3.287h359.787c3.188,0,5.877-1.098,8.068-3.287c2.189-2.191,3.287-4.88,3.287-8.068l0.598-72.314
	V228.058z M150.908,324.281h310.781v-35.859H150.908V324.281z"/>
</svg>
