<?xml version="1.0" encoding="utf-8"?>
<!-- Svg Vector Icons : http://www.sfont.cn -->
<!DOCTYPE svg PUBLIC "-//W3C//DTD SVG 1.1//EN" "http://www.w3.org/Graphics/SVG/1.1/DTD/svg11.dtd">
<svg version="1.1" xmlns="http://www.w3.org/2000/svg" xmlns:xlink="http://www.w3.org/1999/xlink" x="0px" y="0px" viewBox="0 0 1000 1000" enable-background="new 0 0 1000 1000" xml:space="preserve">
<metadata> Svg Vector Icons : http://www.sfont.cn </metadata>
<g><path d="M878,10H122C60.1,10,10,60.1,10,122v756c0,61.9,50.1,112,112,112h756c61.9,0,112-50.2,112-112V122C990,60.1,939.9,10,878,10L878,10z M941,885c0,30.8-25.2,56-55.9,56H115c-30.8,0-56-25.2-56-56V115c0-30.8,25.2-56,56-56h770c30.8,0,55.9,25.2,55.9,56L941,885L941,885z"/></g>
</svg>