<?xml version="1.0" standalone="no"?><!DOCTYPE svg PUBLIC "-//W3C//DTD SVG 1.1//EN" "http://www.w3.org/Graphics/SVG/1.1/DTD/svg11.dtd"><svg t="1564057677762" class="icon" viewBox="0 0 1024 1024" version="1.1" xmlns="http://www.w3.org/2000/svg" p-id="1652" xmlns:xlink="http://www.w3.org/1999/xlink" width="200" height="200"><defs><style type="text/css"></style></defs><path d="M421.28 812.96c-15.36 0-13.92 6.72-10.08 17.76 13.44 37.92 25.92 76.32 40.32 118.08 7.68-12.48 13.44-21.6 20.64-33.6 17.76 23.04 19.2 50.88 39.36 72 9.6-23.52 18.24-44.64 27.84-68.64 6.72 9.6 12 16.8 19.2 26.88 18.24-44.64 35.52-86.4 54.24-131.52-66.72-0.48-129.12-0.48-191.52-0.96l0 0zM553.76 892.64c-17.28-20.64-17.28-20.64-21.6-14.4-6.24 16.32-12.96 33.12-22.08 56.16-12-24-26.88-60.96-30.72-60.96-8.16 7.68-9.12 10.08-17.28 16.8-28.32-54.24-27.84-55.2 30.72-55.2 27.36 0 54.72 0 83.52 0.48-5.28 21.6-13.92 39.84-22.56 57.12l0 0zM627.68 187.52c-29.28-54.72-65.28-97.92-105.12-138.72-8.16-8.16-14.88-19.68-29.76-4.32-115.68 120.48-190.56 256.32-169.44 430.08 12.48 101.76 38.88 200.64 70.08 298.08 5.28 16.8 14.4 22.56 31.68 22.08 54.24-0.96 108.48-0.96 162.72 0.48 19.68 0.48 29.28-5.28 36.96-24 27.84-68.16 48-138.24 59.52-210.72 21.6-132 15.84-260.16-56.64-372.96l0 0zM656.48 562.88c-10.08 60.96-28.32 120-50.4 177.6-6.24 15.36-13.92 20.64-30.24 20.16-45.6-1.44-91.2-0.96-137.28-0.48-13.44 0-20.64-3.36-25.44-17.76-29.76-92.16-53.76-185.28-64.32-281.28-16.32-148.32 48.96-265.92 144-371.52 10.08-11.04 16.8-8.64 26.4 1.44 32.64 35.04 62.4 72.48 88.32 120.48 67.68 105.6 69.6 227.04 48.96 351.36l0 0zM462.56 362.72c-42.72 24.48-57.6 79.68-33.12 122.4 24 42.24 80.16 57.6 122.4 34.08 41.76-23.52 57.12-80.16 33.12-122.88-24.48-42.72-80.16-58.08-122.4-33.6l0 0zM541.28 497.12c-30.24 18.24-72.96 7.2-91.2-24-17.76-30.24-7.2-70.56 22.56-88.8 30.72-18.72 72-8.16 90.72 24 17.76 30.24 7.68 71.04-22.08 88.8l0 0zM722.24 458.72c7.68 86.4-10.56 168.48-50.4 245.28-6.24 11.52-16.32 22.08 0.96 34.56 35.52 25.44 51.84 61.44 52.8 108.96 86.88-62.4 134.88-142.08 140.64-244.8 4.8-81.6-39.84-141.6-118.08-162.72-18.24-5.76-28.32-7.68-25.92 18.72l0 0zM768.8 474.08c47.52 18.24 77.76 62.4 76.32 117.12-1.92 78.24-35.04 153.12-100.32 206.88-9.6-29.28-22.08-53.76-44.16-72-10.56-8.64-4.32-16.8 0-25.44 32.16-64.32 51.36-141.6 48.96-213.6-1.44-17.76 4.8-18.24 19.2-12.96l0 0zM292.64 457.28c1.44-26.4-8.64-24.48-26.88-18.72-77.76 24-120 84.96-112.8 166.56 9.12 102.72 59.52 180.48 148.32 240-0.48-47.04 14.88-84 49.44-110.4 16.8-12.96 6.24-23.04 0-34.56-42.24-75.36-63.36-156.48-58.08-242.88l0 0zM246.56 474.08c13.92-5.76 20.16-5.76 20.16 12.48-0.48 72 21.12 148.8 55.68 212.16 4.32 8.16 11.04 16.32 0.96 25.44-21.6 18.72-33.12 43.68-41.76 72.96-67.2-51.36-102.72-125.76-107.52-203.52-2.88-54.72 25.92-99.84 72.48-119.52l0 0z" p-id="1653" fill="#bfbfbf"></path></svg>